STARTFONT 2.1
FONT -FontForge-Effects Eighty-Book-R-Normal--24-240-75-75-P-110-ISO10646-1
SIZE 24 75 75
FONTBOUNDINGBOX 10 24 0 -5
COMMENT "Generated by fontforge, http://fontforge.sourceforge.net"
COMMENT "Copyright 2013, 2017 Peter Hull. Licensed under SIL Open Font License 1.1"
STARTPROPERTIES 40
FOUNDRY "FontForge"
FAMILY_NAME "Effects Eighty"
WEIGHT_NAME "Book"
SLANT "R"
SETWIDTH_NAME "Normal"
ADD_STYLE_NAME ""
PIXEL_SIZE 24
POINT_SIZE 240
RESOLUTION_X 75
RESOLUTION_Y 75
SPACING "P"
AVERAGE_WIDTH 110
CHARSET_REGISTRY "ISO10646"
CHARSET_ENCODING "1"
FONTNAME_REGISTRY ""
CHARSET_COLLECTIONS "ISO10646-1"
FONT_NAME "EffectsEighty"
FACE_NAME "Effects Eighty"
COPYRIGHT "Copyright 2013, 2017 Peter Hull. Licensed under SIL Open Font License 1.1"
FONT_VERSION "1.100"
FONT_ASCENT 19
FONT_DESCENT 5
UNDERLINE_POSITION -2
UNDERLINE_THICKNESS 2
X_HEIGHT 9
CAP_HEIGHT 13
RAW_ASCENT 800
RAW_DESCENT 200
NORM_SPACE 11
RELATIVE_WEIGHT 40
RELATIVE_SETWIDTH 50
SUPERSCRIPT_X 0
SUPERSCRIPT_Y 8
SUPERSCRIPT_SIZE 14
SUBSCRIPT_X 0
SUBSCRIPT_Y 1
SUBSCRIPT_SIZE 14
FIGURE_WIDTH 11
AVG_LOWERCASE_WIDTH 110
AVG_UPPERCASE_WIDTH 110
ENDPROPERTIES
CHARS 101
STARTCHAR space
ENCODING 32
SWIDTH 450 0
DWIDTH 11 0
BBX 1 1 0 0
BITMAP
00
ENDCHAR
STARTCHAR exclam
ENCODING 33
SWIDTH 450 0
DWIDTH 11 0
BBX 2 15 4 -1
BITMAP
C0
C0
C0
C0
80
C0
80
C0
80
00
00
00
00
C0
C0
ENDCHAR
STARTCHAR quotedbl
ENCODING 34
SWIDTH 450 0
DWIDTH 11 0
BBX 6 6 2 8
BITMAP
CC
DC
DC
CC
DC
CC
ENDCHAR
STARTCHAR numbersign
ENCODING 35
SWIDTH 450 0
DWIDTH 11 0
BBX 10 15 0 -1
BITMAP
3300
3700
3300
3700
FF80
FFC0
3200
3700
3200
FFC0
FF80
3700
3300
3700
3300
ENDCHAR
STARTCHAR dollar
ENCODING 36
SWIDTH 450 0
DWIDTH 11 0
BBX 10 15 0 -1
BITMAP
0C00
0C00
0C00
3FC0
FA80
CC00
0800
3F00
3F00
0DC0
0D80
FF00
FF00
0C00
0C00
ENDCHAR
STARTCHAR percent
ENCODING 37
SWIDTH 450 0
DWIDTH 11 0
BBX 10 15 0 -1
BITMAP
F100
F380
6100
F700
F600
0600
0400
0C00
0C00
1800
1800
33C0
3780
67C0
6380
ENDCHAR
STARTCHAR ampersand
ENCODING 38
SWIDTH 450 0
DWIDTH 11 0
BBX 10 15 0 -1
BITMAP
7800
7800
4800
CC00
FC00
7800
3000
31C0
3180
CF80
CD00
C700
C300
3DC0
3D80
ENDCHAR
STARTCHAR quotesingle
ENCODING 39
SWIDTH 450 0
DWIDTH 11 0
BBX 3 4 4 10
BITMAP
60
60
C0
C0
ENDCHAR
STARTCHAR parenleft
ENCODING 40
SWIDTH 450 0
DWIDTH 11 0
BBX 4 15 4 -1
BITMAP
30
70
20
60
E0
C0
80
C0
C0
C0
60
60
60
70
30
ENDCHAR
STARTCHAR parenright
ENCODING 41
SWIDTH 450 0
DWIDTH 11 0
BBX 4 15 2 -1
BITMAP
C0
C0
60
60
30
30
30
30
30
30
60
60
60
C0
C0
ENDCHAR
STARTCHAR asterisk
ENCODING 42
SWIDTH 450 0
DWIDTH 11 0
BBX 10 10 0 4
BITMAP
3300
3700
1E00
1E00
FF80
FFC0
1E00
1E00
3300
3700
ENDCHAR
STARTCHAR plus
ENCODING 43
SWIDTH 450 0
DWIDTH 11 0
BBX 10 11 0 2
BITMAP
0800
0C00
0C00
0C00
0C00
FFC0
FF80
0C00
0C00
0C00
0C00
ENDCHAR
STARTCHAR comma
ENCODING 44
SWIDTH 450 0
DWIDTH 11 0
BBX 4 8 3 -5
BITMAP
F0
F0
F0
F0
30
30
60
60
ENDCHAR
STARTCHAR hyphen
ENCODING 45
SWIDTH 450 0
DWIDTH 11 0
BBX 10 2 0 6
BITMAP
FFC0
FF80
ENDCHAR
STARTCHAR period
ENCODING 46
SWIDTH 450 0
DWIDTH 11 0
BBX 4 4 2 -1
BITMAP
F0
F0
F0
F0
ENDCHAR
STARTCHAR slash
ENCODING 47
SWIDTH 450 0
DWIDTH 11 0
BBX 8 15 1 -1
BITMAP
02
07
02
0E
0C
0C
08
18
18
30
30
60
60
C0
C0
ENDCHAR
STARTCHAR zero
ENCODING 48
SWIDTH 450 0
DWIDTH 11 0
BBX 10 15 0 -1
BITMAP
1E00
1E00
0000
6380
E380
C1C0
C180
C1C0
C180
C1C0
4080
6380
6300
1E00
1E00
ENDCHAR
STARTCHAR one
ENCODING 49
SWIDTH 450 0
DWIDTH 11 0
BBX 6 15 2 -1
BITMAP
30
30
30
F0
F0
30
30
30
30
30
30
30
30
FC
FC
ENDCHAR
STARTCHAR two
ENCODING 50
SWIDTH 450 0
DWIDTH 11 0
BBX 10 15 0 -1
BITMAP
7D00
7F80
6B00
C180
C1C0
01C0
0180
0700
0300
0C00
0C00
3000
3000
FFC0
FF80
ENDCHAR
STARTCHAR three
ENCODING 51
SWIDTH 450 0
DWIDTH 11 0
BBX 10 15 0 -1
BITMAP
FF80
FFC0
0700
0300
0C00
0C00
0000
0700
0300
01C0
0180
C1C0
C180
3F00
3F00
ENDCHAR
STARTCHAR four
ENCODING 52
SWIDTH 450 0
DWIDTH 11 0
BBX 10 15 0 -1
BITMAP
0E00
0F00
0A00
1F00
3A00
3700
6200
6700
6200
FFC0
FF80
0700
0300
0700
0300
ENDCHAR
STARTCHAR five
ENCODING 53
SWIDTH 450 0
DWIDTH 11 0
BBX 10 15 0 -1
BITMAP
FF80
FFC0
C000
C000
FF00
FF00
0080
01C0
0080
01C0
0080
C1C0
C180
7F80
7F00
ENDCHAR
STARTCHAR six
ENCODING 54
SWIDTH 450 0
DWIDTH 11 0
BBX 10 15 0 -1
BITMAP
0C00
0C00
0800
1800
3800
3000
3000
7F80
7F80
C180
C1C0
C1C0
C180
7F80
7F00
ENDCHAR
STARTCHAR seven
ENCODING 55
SWIDTH 450 0
DWIDTH 11 0
BBX 10 15 0 -1
BITMAP
FF80
FFC0
0100
0380
0200
0700
0200
0600
0600
0C00
0C00
1800
1800
3000
3000
ENDCHAR
STARTCHAR eight
ENCODING 56
SWIDTH 450 0
DWIDTH 11 0
BBX 10 15 0 -1
BITMAP
7D00
7F80
6B00
C1C0
4080
C1C0
C080
7F80
7F80
C180
C1C0
C1C0
C180
7F80
7F00
ENDCHAR
STARTCHAR nine
ENCODING 57
SWIDTH 450 0
DWIDTH 11 0
BBX 10 15 0 -1
BITMAP
7D00
7F80
6B00
C1C0
4080
C1C0
C080
7F80
7F00
0700
0200
0600
0600
0C00
0C00
ENDCHAR
STARTCHAR colon
ENCODING 58
SWIDTH 450 0
DWIDTH 11 0
BBX 4 11 2 -1
BITMAP
F0
F0
F0
F0
00
00
00
F0
F0
F0
F0
ENDCHAR
STARTCHAR semicolon
ENCODING 59
SWIDTH 450 0
DWIDTH 11 0
BBX 4 15 2 -5
BITMAP
F0
F0
F0
F0
00
00
00
F0
F0
F0
F0
30
30
C0
C0
ENDCHAR
STARTCHAR less
ENCODING 60
SWIDTH 450 0
DWIDTH 11 0
BBX 8 15 0 -1
BITMAP
03
07
00
0C
3C
30
00
C0
C0
30
30
0C
0C
07
03
ENDCHAR
STARTCHAR equal
ENCODING 61
SWIDTH 450 0
DWIDTH 11 0
BBX 10 6 0 4
BITMAP
FF80
FFC0
0000
0000
FF80
FFC0
ENDCHAR
STARTCHAR greater
ENCODING 62
SWIDTH 450 0
DWIDTH 11 0
BBX 8 15 2 -1
BITMAP
C0
C0
00
30
3C
1C
00
07
06
1C
0C
30
30
C0
C0
ENDCHAR
STARTCHAR question
ENCODING 63
SWIDTH 450 0
DWIDTH 11 0
BBX 10 15 0 -1
BITMAP
7D00
7F80
6B00
C180
C1C0
01C0
0180
0700
0300
0C00
0C00
0000
0000
0C00
0C00
ENDCHAR
STARTCHAR at
ENCODING 64
SWIDTH 450 0
DWIDTH 11 0
BBX 10 15 0 -1
BITMAP
3F00
3F00
2000
61C0
EA80
CFC0
4D80
D9C0
D980
CFC0
CF80
6000
6000
3FC0
3F80
ENDCHAR
STARTCHAR A
ENCODING 65
SWIDTH 450 0
DWIDTH 11 0
BBX 10 15 0 -1
BITMAP
1E00
1E00
1200
3700
7300
6380
C080
C1C0
C080
FFC0
FF80
C1C0
C180
C1C0
C180
ENDCHAR
STARTCHAR B
ENCODING 66
SWIDTH 450 0
DWIDTH 11 0
BBX 10 15 0 -1
BITMAP
FF00
FF00
7400
61C0
2080
61C0
6080
7F80
7F80
6180
61C0
61C0
6180
FF00
FF00
ENDCHAR
STARTCHAR C
ENCODING 67
SWIDTH 450 0
DWIDTH 11 0
BBX 10 15 0 -1
BITMAP
7F00
7F80
4100
C1C0
C180
C000
C000
C000
C000
C000
C000
C1C0
C180
7F80
7F00
ENDCHAR
STARTCHAR D
ENCODING 68
SWIDTH 450 0
DWIDTH 11 0
BBX 10 15 0 -1
BITMAP
FF00
FF00
6100
6380
6180
61C0
6180
61C0
61C0
6180
6300
6380
6100
FF00
FF00
ENDCHAR
STARTCHAR E
ENCODING 69
SWIDTH 450 0
DWIDTH 11 0
BBX 10 15 0 -1
BITMAP
FF80
FFC0
C000
C000
4000
C000
C000
FF00
FF00
C000
C000
C000
C000
FFC0
FF80
ENDCHAR
STARTCHAR F
ENCODING 70
SWIDTH 450 0
DWIDTH 11 0
BBX 10 15 0 -1
BITMAP
FF80
FFC0
C000
C000
4000
C000
C000
FF00
FF00
C000
C000
C000
C000
C000
C000
ENDCHAR
STARTCHAR G
ENCODING 71
SWIDTH 450 0
DWIDTH 11 0
BBX 10 15 0 -1
BITMAP
7F00
7F80
4100
C1C0
C180
C000
C000
CF80
CFC0
C180
C1C0
C1C0
C180
7F80
7F00
ENDCHAR
STARTCHAR H
ENCODING 72
SWIDTH 450 0
DWIDTH 11 0
BBX 10 15 0 -1
BITMAP
C180
C1C0
4080
C1C0
4080
C1C0
C080
FFC0
FF80
C1C0
C180
C1C0
C180
C1C0
C180
ENDCHAR
STARTCHAR I
ENCODING 73
SWIDTH 450 0
DWIDTH 11 0
BBX 6 15 2 -1
BITMAP
FC
FC
30
30
20
30
20
30
20
30
30
30
30
FC
FC
ENDCHAR
STARTCHAR J
ENCODING 74
SWIDTH 450 0
DWIDTH 11 0
BBX 9 15 0 -1
BITMAP
1F00
1F80
0200
0700
0200
0700
0200
0700
0200
0700
0200
C700
C300
7E00
7E00
ENDCHAR
STARTCHAR K
ENCODING 75
SWIDTH 450 0
DWIDTH 11 0
BBX 10 15 0 -1
BITMAP
C180
C1C0
4000
C700
4F00
CC00
4000
F000
F000
CC00
CC00
C700
C300
C1C0
C180
ENDCHAR
STARTCHAR L
ENCODING 76
SWIDTH 450 0
DWIDTH 11 0
BBX 10 15 0 -1
BITMAP
C000
C000
4000
C000
4000
C000
4000
C000
C000
C000
C000
C000
C000
FFC0
FF80
ENDCHAR
STARTCHAR M
ENCODING 77
SWIDTH 450 0
DWIDTH 11 0
BBX 10 15 0 -1
BITMAP
C080
C1C0
C080
F7C0
7E80
DFC0
CC80
CDC0
4080
C1C0
4080
C1C0
C080
C1C0
C180
ENDCHAR
STARTCHAR N
ENCODING 78
SWIDTH 450 0
DWIDTH 11 0
BBX 10 15 0 -1
BITMAP
C080
C1C0
C080
F1C0
7880
D9C0
D980
CD80
CDC0
C7C0
C780
C7C0
C380
C1C0
C180
ENDCHAR
STARTCHAR O
ENCODING 79
SWIDTH 450 0
DWIDTH 11 0
BBX 10 15 0 -1
BITMAP
7F00
7F80
C080
C1C0
4080
C1C0
4080
C1C0
4080
C1C0
C080
C1C0
C180
7F80
7F00
ENDCHAR
STARTCHAR P
ENCODING 80
SWIDTH 450 0
DWIDTH 11 0
BBX 10 15 0 -1
BITMAP
FF00
FF00
D400
C1C0
4080
C1C0
C180
FF00
FF00
C000
C000
C000
C000
C000
C000
ENDCHAR
STARTCHAR Q
ENCODING 81
SWIDTH 450 0
DWIDTH 11 0
BBX 10 15 0 -1
BITMAP
7F00
7F80
C080
C1C0
4080
C1C0
4080
C1C0
C180
CDC0
CD80
C700
C300
7FC0
7F80
ENDCHAR
STARTCHAR R
ENCODING 82
SWIDTH 450 0
DWIDTH 11 0
BBX 10 15 0 -1
BITMAP
FF00
FF00
D400
C1C0
4080
C1C0
C180
FF00
FF00
C300
C700
C380
C100
C1C0
C180
ENDCHAR
STARTCHAR S
ENCODING 83
SWIDTH 450 0
DWIDTH 11 0
BBX 10 15 0 -1
BITMAP
7D00
7F80
6B00
C180
C1C0
C000
C000
7F80
7F80
01C0
0180
C1C0
C180
7F80
7F00
ENDCHAR
STARTCHAR T
ENCODING 84
SWIDTH 450 0
DWIDTH 11 0
BBX 10 15 0 -1
BITMAP
FF80
FFC0
0C00
0C00
0800
0C00
0800
0C00
0800
0C00
0C00
0C00
0C00
0C00
0C00
ENDCHAR
STARTCHAR U
ENCODING 85
SWIDTH 450 0
DWIDTH 11 0
BBX 10 15 0 -1
BITMAP
C180
C1C0
4080
C1C0
4080
C1C0
4080
C1C0
C080
C1C0
C080
C1C0
C180
7F80
7F00
ENDCHAR
STARTCHAR V
ENCODING 86
SWIDTH 450 0
DWIDTH 11 0
BBX 10 15 0 -1
BITMAP
C180
C1C0
4080
C1C0
4080
C1C0
4100
6380
6300
3300
3700
1E00
1E00
0C00
0C00
ENDCHAR
STARTCHAR W
ENCODING 87
SWIDTH 450 0
DWIDTH 11 0
BBX 10 15 0 -1
BITMAP
C180
C1C0
C180
C1C0
CC80
CDC0
4880
CDC0
CD80
DFC0
5B80
F7C0
F380
6380
6300
ENDCHAR
STARTCHAR X
ENCODING 88
SWIDTH 450 0
DWIDTH 11 0
BBX 8 15 1 -1
BITMAP
C2
C7
42
6E
7C
3C
18
18
18
3C
64
6E
64
C7
C6
ENDCHAR
STARTCHAR Y
ENCODING 89
SWIDTH 450 0
DWIDTH 11 0
BBX 10 15 0 -1
BITMAP
C080
C1C0
4100
6380
7300
3700
1200
1E00
1E00
0C00
0C00
0C00
0C00
0C00
0C00
ENDCHAR
STARTCHAR Z
ENCODING 90
SWIDTH 450 0
DWIDTH 11 0
BBX 8 15 1 -1
BITMAP
FE
FF
04
0E
0C
0C
08
18
18
30
30
60
60
FF
FE
ENDCHAR
STARTCHAR bracketleft
ENCODING 91
SWIDTH 450 0
DWIDTH 11 0
BBX 6 15 2 -1
BITMAP
FC
FC
C0
C0
C0
C0
C0
C0
C0
C0
C0
C0
C0
FC
FC
ENDCHAR
STARTCHAR backslash
ENCODING 92
SWIDTH 450 0
DWIDTH 11 0
BBX 8 15 1 -1
BITMAP
C0
C0
40
60
30
30
30
18
18
0C
0C
0E
04
07
06
ENDCHAR
STARTCHAR bracketright
ENCODING 93
SWIDTH 450 0
DWIDTH 11 0
BBX 6 15 2 -1
BITMAP
FC
FC
08
1C
08
1C
08
1C
08
1C
08
1C
08
FC
FC
ENDCHAR
STARTCHAR asciicircum
ENCODING 94
SWIDTH 450 0
DWIDTH 11 0
BBX 10 6 0 8
BITMAP
0C00
0C00
3700
3300
C1C0
C180
ENDCHAR
STARTCHAR underscore
ENCODING 95
SWIDTH 450 0
DWIDTH 11 0
BBX 10 2 0 -5
BITMAP
FFC0
FF80
ENDCHAR
STARTCHAR grave
ENCODING 96
SWIDTH 450 0
DWIDTH 11 0
BBX 3 4 3 10
BITMAP
C0
C0
60
60
ENDCHAR
STARTCHAR a
ENCODING 97
SWIDTH 450 0
DWIDTH 11 0
BBX 10 11 0 -1
BITMAP
3F00
3F00
0100
0380
0100
7F80
7F00
C380
C300
7FC0
7F80
ENDCHAR
STARTCHAR b
ENCODING 98
SWIDTH 450 0
DWIDTH 11 0
BBX 9 15 0 -1
BITMAP
C000
C000
C000
C000
FE00
FF00
D500
C380
4100
C380
4100
C380
C100
FF00
FF00
ENDCHAR
STARTCHAR c
ENCODING 99
SWIDTH 450 0
DWIDTH 11 0
BBX 9 11 0 -1
BITMAP
7F00
7F80
6A00
C000
4000
C000
4000
C000
C000
7F80
7F00
ENDCHAR
STARTCHAR d
ENCODING 100
SWIDTH 450 0
DWIDTH 11 0
BBX 9 15 0 -1
BITMAP
0300
0380
0300
0380
7F00
7F80
6B00
C380
4100
C380
4100
C380
C100
7F80
7F00
ENDCHAR
STARTCHAR e
ENCODING 101
SWIDTH 450 0
DWIDTH 11 0
BBX 10 11 0 -1
BITMAP
7F00
7F80
6A80
C180
C0C0
FFC0
FF80
C000
C000
7F80
7F00
ENDCHAR
STARTCHAR f
ENCODING 102
SWIDTH 450 0
DWIDTH 11 0
BBX 8 15 0 -1
BITMAP
0F
0F
18
18
10
18
18
FF
FF
18
18
18
18
18
18
ENDCHAR
STARTCHAR g
ENCODING 103
SWIDTH 450 0
DWIDTH 11 0
BBX 9 15 0 -5
BITMAP
7F00
7F80
6B00
C380
4100
C380
4100
C380
C100
7F80
7F00
0380
0100
3F00
3F00
ENDCHAR
STARTCHAR h
ENCODING 104
SWIDTH 450 0
DWIDTH 11 0
BBX 9 15 0 -1
BITMAP
C000
C000
C000
C000
FF00
FF00
C100
C380
4100
C380
4100
C380
C100
C380
C100
ENDCHAR
STARTCHAR i
ENCODING 105
SWIDTH 450 0
DWIDTH 11 0
BBX 6 15 1 -1
BITMAP
30
30
00
00
F0
F0
30
30
20
30
30
30
30
FC
FC
ENDCHAR
STARTCHAR j
ENCODING 106
SWIDTH 450 0
DWIDTH 11 0
BBX 7 17 1 -3
BITMAP
06
0E
00
00
06
0E
04
0E
04
0E
04
0E
04
0E
04
FC
FC
ENDCHAR
STARTCHAR k
ENCODING 107
SWIDTH 450 0
DWIDTH 11 0
BBX 8 15 1 -1
BITMAP
C0
C0
C0
C0
C2
C7
40
CC
CC
F0
F0
CC
CC
C7
C6
ENDCHAR
STARTCHAR l
ENCODING 108
SWIDTH 450 0
DWIDTH 11 0
BBX 6 15 1 -1
BITMAP
F0
F0
30
30
30
30
20
30
20
30
30
30
30
FC
FC
ENDCHAR
STARTCHAR m
ENCODING 109
SWIDTH 450 0
DWIDTH 11 0
BBX 10 11 0 -1
BITMAP
7F00
7F80
CC80
CDC0
4880
CDC0
4880
CDC0
CC80
CDC0
CD80
ENDCHAR
STARTCHAR n
ENCODING 110
SWIDTH 450 0
DWIDTH 11 0
BBX 9 11 0 -1
BITMAP
FF00
FF00
C100
C380
4100
C380
4100
C380
C100
C380
C100
ENDCHAR
STARTCHAR o
ENCODING 111
SWIDTH 450 0
DWIDTH 11 0
BBX 10 11 0 -1
BITMAP
7F00
7F80
6A80
C1C0
4080
C1C0
4080
C1C0
C180
7F80
7F00
ENDCHAR
STARTCHAR p
ENCODING 112
SWIDTH 450 0
DWIDTH 11 0
BBX 9 15 0 -5
BITMAP
FE00
FF00
D500
C380
4100
C380
4100
C380
C100
FF00
FF00
C000
C000
C000
C000
ENDCHAR
STARTCHAR q
ENCODING 113
SWIDTH 450 0
DWIDTH 11 0
BBX 9 15 1 -5
BITMAP
7D00
7F80
6B00
C380
C100
C380
C100
C380
C300
7F80
7F00
0380
0300
0380
0300
ENDCHAR
STARTCHAR r
ENCODING 114
SWIDTH 450 0
DWIDTH 11 0
BBX 9 11 0 -1
BITMAP
DF00
DF80
5000
F000
F000
C000
C000
C000
C000
C000
C000
ENDCHAR
STARTCHAR s
ENCODING 115
SWIDTH 450 0
DWIDTH 11 0
BBX 10 11 0 -1
BITMAP
7F00
7F80
4000
C000
C000
7F80
7F00
01C0
0180
7F80
7F00
ENDCHAR
STARTCHAR t
ENCODING 116
SWIDTH 450 0
DWIDTH 11 0
BBX 9 15 0 -1
BITMAP
3000
3000
3000
3000
FF00
FF00
3000
3000
3000
3000
3000
3000
3000
1F80
1F00
ENDCHAR
STARTCHAR u
ENCODING 117
SWIDTH 450 0
DWIDTH 11 0
BBX 10 11 0 -1
BITMAP
C100
C380
4100
C380
4100
C380
C100
C380
C100
7FC0
7F80
ENDCHAR
STARTCHAR v
ENCODING 118
SWIDTH 450 0
DWIDTH 11 0
BBX 10 11 0 -1
BITMAP
C080
C1C0
4100
6380
6300
3300
3700
1E00
1E00
0C00
0C00
ENDCHAR
STARTCHAR w
ENCODING 119
SWIDTH 450 0
DWIDTH 11 0
BBX 10 11 0 -1
BITMAP
C080
C1C0
C180
CD80
CDC0
DF80
DFC0
F7C0
F380
6380
6300
ENDCHAR
STARTCHAR x
ENCODING 120
SWIDTH 450 0
DWIDTH 11 0
BBX 8 11 0 -1
BITMAP
C3
C7
42
66
66
18
18
66
66
C7
C3
ENDCHAR
STARTCHAR y
ENCODING 121
SWIDTH 450 0
DWIDTH 11 0
BBX 10 15 0 -5
BITMAP
C080
C1C0
4100
6380
6300
3300
3700
1E00
1E00
0C00
0C00
1800
1800
3000
3000
ENDCHAR
STARTCHAR z
ENCODING 122
SWIDTH 450 0
DWIDTH 11 0
BBX 8 11 0 -1
BITMAP
FF
FF
06
06
06
18
18
60
60
FF
FF
ENDCHAR
STARTCHAR braceleft
ENCODING 123
SWIDTH 450 0
DWIDTH 11 0
BBX 7 15 2 -1
BITMAP
14
1E
18
30
20
30
30
C0
C0
30
30
30
30
1E
1C
ENDCHAR
STARTCHAR bar
ENCODING 124
SWIDTH 450 0
DWIDTH 11 0
BBX 2 15 4 -1
BITMAP
C0
C0
C0
C0
C0
C0
00
00
00
C0
C0
C0
C0
C0
C0
ENDCHAR
STARTCHAR braceright
ENCODING 125
SWIDTH 450 0
DWIDTH 11 0
BBX 7 15 1 -1
BITMAP
F0
F0
50
18
10
18
18
0E
06
18
18
18
18
F0
F0
ENDCHAR
STARTCHAR asciitilde
ENCODING 126
SWIDTH 450 0
DWIDTH 11 0
BBX 10 6 0 8
BITMAP
7800
7800
CDC0
CD80
0780
0700
ENDCHAR
STARTCHAR exclamdown
ENCODING 161
SWIDTH 450 0
DWIDTH 11 0
BBX 3 15 4 -1
BITMAP
E0
E0
00
00
00
00
C0
E0
C0
E0
C0
E0
E0
E0
E0
ENDCHAR
STARTCHAR sterling
ENCODING 163
SWIDTH 450 0
DWIDTH 11 0
BBX 10 15 0 -1
BITMAP
1F00
1F80
1100
31C0
3180
3000
3000
FC00
FC00
3000
3000
3000
3000
FFC0
FF80
ENDCHAR
STARTCHAR currency
ENCODING 164
SWIDTH 450 0
DWIDTH 11 0
BBX 10 15 0 -1
BITMAP
C180
C1C0
1400
3F00
7B00
6380
4100
C1C0
C180
6380
3500
3F00
3E00
C1C0
C180
ENDCHAR
STARTCHAR yen
ENCODING 165
SWIDTH 450 0
DWIDTH 11 0
BBX 10 15 0 -1
BITMAP
C180
C1C0
3200
3700
FF80
FFC0
0C00
0C00
0C00
FFC0
FF80
0C00
0C00
0C00
0C00
ENDCHAR
STARTCHAR dieresis
ENCODING 168
SWIDTH 450 0
DWIDTH 11 0
BBX 6 2 2 12
BITMAP
DC
CC
ENDCHAR
STARTCHAR .notdef
ENCODING -1
SWIDTH 500 0
DWIDTH 12 0
BBX 8 24 2 -5
BITMAP
FF
FF
C3
FF
FF
CF
DF
FF
C3
FF
FB
EF
D3
DB
C3
FF
C3
DB
C3
FF
FF
C3
FF
FF
ENDCHAR
ENDFONT
